<?xml version="1.0" encoding="utf-8"?>
<!-- Generator: Adobe Illustrator 17.0.0, SVG Export Plug-In . SVG Version: 6.00 Build 0)  -->
<!DOCTYPE svg PUBLIC "-//W3C//DTD SVG 1.1//EN" "http://www.w3.org/Graphics/SVG/1.1/DTD/svg11.dtd">
<svg version="1.1" id="Layer_1" xmlns="http://www.w3.org/2000/svg" xmlns:xlink="http://www.w3.org/1999/xlink" x="0px" y="0px"
	 width="40.505px" height="29.174px" viewBox="1.656 -1.866 40.505 29.174" enable-background="new 1.656 -1.866 40.505 29.174"
	 xml:space="preserve">
<g>
	<path fill="#0084FF" d="M18.093,5.354c2.181-0.231,3.783,1.66,3.61,3.609c-0.097,1.351-1.023,2.799-2.085,3.494
		c-1.641,1.004-3.88,1.254-5.269,0.792c-1.641-0.58-2.027-1.718-2.008-2.606c0.019-1.177,0.888-1.968,1.583-2.162
		c0.676-0.155,1.043,0.155,0.869,0.656c-0.676,0.174-1.371,1.274-0.734,1.969c0.463,0.54,2.181,0.56,3.359-0.155
		c1.042-0.598,1.776-1.351,1.892-2.702c0.231-2.316-1.872-2.2-3.224-1.602c-0.502,0.212-1.525-1.93-0.965-1.969
		c0.618-0.116,1.101-0.193,2.046-0.791c1.235-0.849,1.429-3.031,0.849-3.571c-0.579-0.502-1.409-0.27-1.795,0.116
		c-0.792,0.83-0.946,1.756-0.734,2.606c-0.888,0.289-1.602,0.174-2.104-0.425c-0.637-0.656-0.463-2.162,0.502-3.05
		c1.506-1.331,4.015-0.907,5.289-0.173c1.776,1.004,1.911,2.471,1.525,3.494C20.333,3.81,19.097,5.142,18.093,5.354z"/>
	<path fill="#0084FF" d="M22.434,7.13c-0.058-1.911,0.251-3.861,0.946-5.173c0.097-0.753,0.386-1.544,0.965-2.162
		c0.56-0.598,1.351-1.004,2.239-1.119c1.216-0.155,2.625,0.27,3.879,1.525c1.699,1.68,2.027,4.42,1.68,6.93
		c-0.309,2.297-1.158,4.42-2.046,5.289c-0.946,0.926-2.143,1.331-3.32,1.197c-1.1-0.116-2.181-0.695-3.03-1.795
		C22.917,10.74,22.492,8.964,22.434,7.13z M25.503,8.79c0.367,1.621,1.101,3.108,1.969,3.242c0.772,0.116,1.274-0.463,1.795-1.429
		c0.637-1.196,1.062-2.992,1.062-4.922c0-1.872-0.309-3.127-0.792-3.938c-0.695-1.158-1.679-1.371-2.297-1.197
		c-1.293,0.367-1.602,2.471-1.371,4.42c0.174,1.525,0.676,2.953,1.255,3.436c0.27,0.232,0.289,0.965-0.482,0.927
		C26.237,9.311,25.851,9.08,25.503,8.79z"/>
	<path fill="#0084FF" d="M15.826,24.472c0.132,0.541-0.517,1.576-1.299,1.744c-0.578,0.132-1.492-0.145-1.816-1.167
		c-0.204-0.613-0.169-1.888-0.132-3.115c0.048-1.444,0.12-2.827-0.145-2.983c-0.229-0.144-0.686,1.299-1.082,2.96
		c-0.433,1.792-0.782,3.849-0.686,4.39c-0.361,0.084-0.83-0.012-1.215-0.277c-0.337-0.228-0.602-0.601-0.686-1.106
		c-0.072-0.457-0.06-1.708-0.06-2.971c0-1.648-0.024-3.332-0.337-3.404c-0.277-0.06-0.758,1.732-1.191,3.657
		c-0.445,2.009-0.83,4.174-0.806,4.571c-0.253,0.084-0.698-0.036-1.107-0.325c-0.325-0.228-0.613-0.578-0.734-1.046
		c-0.156-0.613-0.096-2.046-0.012-3.429c0.096-1.599,0.216-3.127,0.036-3.247c-0.325-0.217-0.721,0.397-1.383,0.577
		c-0.481,0.133-0.686-0.107-0.806-0.409c0.156-0.313,0.998-1.094,1.732-1.25c0.746-0.156,1.889,0.433,2.033,1.515
		c0.156,1.155-0.132,4.331-0.132,4.331s0.253-1.853,0.65-3.525c0.265-1.106,0.601-2.141,0.986-2.49
		c0.325-0.301,0.842-0.217,1.311,0.073c0.493,0.313,0.95,0.866,1.083,1.467c0.253,1.083,0.289,3.572,0.289,3.572
		s0.842-4.21,1.516-4.691c0.541-0.373,1.107-0.144,1.551,0.324c0.397,0.421,0.686,1.023,0.758,1.564
		c0.072,0.469,0.012,1.479-0.024,2.502c-0.048,1.335-0.084,2.683,0.156,2.851c0.421,0.301,1.094-0.65,1.094-1.07
		C15.55,24.051,15.767,24.207,15.826,24.472z"/>
	<path fill="#0084FF" d="M15.461,25.037c-0.108-0.398-0.108-1.179-0.073-2.021c0.06-1.335,0.229-2.802,0.18-3.007
		c0.229-0.049,0.614-0.049,0.939,0.216c0.204,0.169,0.397,0.433,0.493,0.866c0.072,0.325-0.048,1.347-0.108,2.298
		c-0.06,0.866-0.072,1.672,0.132,1.78c0.204,0.096,0.433-0.036,0.613-0.253c0.204-0.24,0.373-0.601,0.433-0.854
		c0.192-0.06,0.517,0.276,0.445,0.673c-0.132,0.722-0.83,1.552-1.6,1.504S15.654,25.71,15.461,25.037z M17.169,18.241
		c0.373,0.433,0.337,0.939-0.084,1.118c-0.421,0.204-1.094,0-1.443-0.421c-0.373-0.433-0.313-0.914,0.096-1.106
		C16.159,17.627,16.808,17.807,17.169,18.241z"/>
	<path fill="#0084FF" d="M24.145,24.94c-0.193,0.602-0.95,1.324-1.455,1.324c-0.337,0-1.191-0.108-1.528-1.155
		c-0.156-0.481-0.132-1.191-0.084-1.853c0.073-0.986,0.193-1.888-0.072-1.924c-0.277-0.037-0.794,1.239-1.191,2.478
		c-0.313,0.974-0.541,1.912-0.517,2.141c0.036,0.301-0.349,0.265-0.71-0.037c-0.264-0.216-0.505-0.577-0.565-1.034
		c-0.048-0.421,0-1.179,0.06-1.973c0.072-1.035,0.156-2.129,0.036-2.574c0.457-0.204,1.083,0.133,1.287,0.661
		c0.216,0.565-0.012,2.142-0.012,2.142s0.578-2.274,1.143-2.695c0.698-0.53,1.804,0.06,2.033,0.782c0.108,0.373,0.06,1.239,0,2.069
		c-0.06,0.938-0.132,1.828,0.06,1.96c0.192,0.133,0.481-0.059,0.71-0.349c0.193-0.253,0.349-0.565,0.373-0.83
		C23.917,24.039,24.35,24.339,24.145,24.94z"/>
	<path fill="#0084FF" d="M25.105,24.364c0.024,0.372,0.241,0.481,0.397,0.361c0.204-0.156,0.457-0.818,0.686-1.588
		c0.313-1.035,0.589-2.25,0.637-2.647c0.036-0.253,0.541-0.144,0.95,0.204c0.301,0.253,0.554,0.613,0.554,1.059
		c0.012,0.505-0.06,1.154-0.108,1.768c-0.072,0.866-0.108,1.636,0.18,1.756c0.325,0.132,0.902-0.698,1.01-1.203
		c0.156-0.036,0.469,0.108,0.493,0.542c0.024,0.384-0.469,1.25-1.01,1.479c-0.638,0.277-1.564,0.108-1.889-0.83
		c-0.277-0.77-0.108-1.936-0.024-2.441c-0.084,0.397-0.277,1.335-0.577,2.105c-0.193,0.481-0.433,0.902-0.722,1.058
		c-0.301,0.181-0.794,0.084-1.215-0.253c-0.361-0.277-0.661-0.734-0.77-1.335c-0.096-0.517-0.084-1.167-0.048-1.804
		c0.048-0.939,0.156-1.864,0.108-2.297c0.445-0.084,1.251,0.192,1.371,0.83C25.261,21.789,25.081,23.907,25.105,24.364z"/>
	<path fill="#0084FF" d="M29.505,25.061c-0.096-0.276-0.108-1.01-0.084-1.936c0.012-0.674,0.036-1.444,0.072-2.226
		c-0.409-0.012-0.722-0.024-0.722-0.024s-0.048-0.121-0.072-0.265c-0.036-0.181-0.036-0.385,0.144-0.433
		c0.145-0.048,0.385-0.072,0.674-0.084c0.012-0.288,0.012-0.53,0.012-0.746c0-0.625-0.072-1.034,0.132-1.395
		c0.132-0.229,0.482-0.204,0.77-0.012c0.253,0.169,0.482,0.493,0.602,0.998c0.048,0.156,0.06,0.59,0.036,1.143
		c0.469,0,0.89,0,1.083-0.036c0.084,0.192,0.121,0.397,0.012,0.553c-0.084,0.121-0.253,0.217-0.53,0.253
		c-0.168,0.024-0.385,0.048-0.625,0.048c-0.024,0.204-0.048,0.421-0.084,0.626c-0.096,0.83-0.156,1.564-0.168,2.165
		c-0.012,0.854,0.072,1.431,0.264,1.576c0.265,0.204,0.637,0.036,0.914-0.301c0.204-0.253,0.361-0.59,0.397-0.926
		c0.217-0.024,0.661,0.313,0.409,0.987c-0.325,0.854-1.046,1.263-1.828,1.215C30.131,26.192,29.722,25.699,29.505,25.061z"/>
	<path fill="#0084FF" d="M33.594,23.208c0.012,0.661,0.169,1.299,0.505,1.673c0.517,0.565,1.227,0.457,1.769-0.012
		c0.385-0.325,0.673-0.83,0.745-1.371c0.337-0.073,0.602,0.313,0.517,0.781c-0.144,0.855-0.866,1.528-1.66,1.804
		c-0.758,0.265-2.081,0.229-2.887-0.782c-0.842-1.058-0.83-3.224,0-4.45c0.974-1.444,2.887-0.939,3.308-0.036
		c0.397,0.866-0.132,1.492-0.517,1.804C34.869,23.028,34.207,23.185,33.594,23.208z M33.87,21.416
		c-0.108,0.289-0.192,0.638-0.24,1.022c0.229-0.06,0.433-0.144,0.698-0.313c0.36-0.24,0.493-0.613,0.481-0.914
		c-0.012-0.276-0.156-0.493-0.373-0.469C34.22,20.779,34.015,21.043,33.87,21.416z"/>
	<path fill="#0084FF" d="M38.728,19.72c0.517,0.073,0.83,0.421,0.613,0.517c-0.361,0.169-0.613,0.553-0.421,0.939
		c0.325,0.649,0.673,1.227,0.866,1.648c0.265,0.565,0.565,1.6,0.096,2.502c0.289-0.156,0.517-0.373,0.734-0.626
		c0.168-0.192,0.325-0.445,0.361-0.637c0.144,0.024,0.505,0.12,0.469,0.673c-0.036,0.469-0.457,0.915-1.083,1.287
		c-0.926,0.554-2.008,0.446-2.778,0.253c-0.71-0.18-1.359-0.577-1.612-1.118c-0.373-0.806,0.192-1.311,0.445-1.396
		c0.169-0.361,0.337-0.806,0.482-1.263c0.144-0.445,0.264-0.926,0.349-1.383c-0.06-0.277-0.072-0.541,0.012-0.806
		C37.441,19.768,38.031,19.624,38.728,19.72z M37.417,23.665c-0.156,0.409-0.312,0.794-0.469,1.095
		c0.421,0.482,1.022,0.83,1.419,0.59c0.265-0.156,0.265-0.686,0.121-1.287c-0.108-0.433-0.289-0.903-0.662-1.637
		C37.706,22.835,37.562,23.269,37.417,23.665z"/>
</g>
</svg>
