<?xml version="1.0" encoding="utf-8"?>
<!-- Generator: Adobe Illustrator 17.0.0, SVG Export Plug-In . SVG Version: 6.00 Build 0)  -->
<!DOCTYPE svg PUBLIC "-//W3C//DTD SVG 1.1//EN" "http://www.w3.org/Graphics/SVG/1.1/DTD/svg11.dtd">
<svg version="1.1" id="Layer_1" xmlns="http://www.w3.org/2000/svg" xmlns:xlink="http://www.w3.org/1999/xlink" x="0px" y="0px"
	 width="106.403px" height="17.791px" viewBox="0 0 106.403 17.791" enable-background="new 0 0 106.403 17.791"
	 xml:space="preserve">
<g>
	<path fill="#0084FF" d="M3.397,9.997c0.155,0,0.443,0.022,0.797,0.022H4.46c0.066-1.771,0.155-3.63,0.243-5.158L4.77,3.268
		c-1.439,0.642-2.612,1.505-2.9,2.125C1.339,5.216,0.874,4.529,0.874,3.821c0-0.354,0.11-0.753,0.42-1.151
		C2.18,1.519,4.46,0.965,6.785,0.965c1.86,0,3.83,0.377,4.848,1.062c1.373,0.93,1.948,2.125,1.948,3.232
		c0,1.284-0.708,2.568-1.793,3.63c-1.151,1.151-2.989,1.904-4.671,2.258v1.018c0,2.17,0.044,4.493,0.133,5.445
		c-1.041,0.156-2.103-0.243-2.502-1.151c-0.243-0.531-0.332-1.926-0.332-3.719v-1.395c-0.199-0.022-0.598-0.155-0.93-0.443
		C3.065,10.528,2.932,9.953,3.397,9.997z M7.138,9.488c0.819-0.31,1.682-0.797,2.48-1.55c0.819-0.775,1.417-2.125,1.417-3.343
		c0-1.527-1.195-2.191-2.701-2.191c-0.509,0-1.04,0.066-1.571,0.199l0.088,0.199c0.243,0.775,0.377,2.08,0.377,3.608
		c0,0.819-0.045,1.815-0.067,2.811C7.161,9.311,7.138,9.4,7.138,9.488z"/>
	<path fill="#0084FF" d="M15.594,11.724c0,1.417,0.266,2.789,1.018,3.564c0.509,0.553,1.107,0.796,1.682,0.796
		c0.753,0,1.528-0.377,2.147-0.996c0.62-0.62,1.085-1.483,1.24-2.412c0.487,0,0.819,0.597,0.708,1.284
		c-0.155,0.864-0.598,1.616-1.24,2.213c-0.907,0.841-2.147,1.35-3.475,1.35c-1.306,0-2.745-0.443-3.741-1.704
		c-0.797-0.996-1.151-2.48-1.151-4.007c0-1.55,0.377-3.143,1.173-4.294c0.797-1.173,1.948-1.638,3.055-1.638
		c1.328,0,2.612,0.664,3.011,1.549c0.553,1.195,0.155,2.324-0.952,3.21C18.118,11.392,16.79,11.724,15.594,11.724z M15.639,10.684
		c0.553-0.11,1.062-0.288,1.616-0.642c0.664-0.465,1.018-1.262,1.018-1.86c0-0.642-0.443-1.262-0.93-1.195
		C16.524,7.12,15.838,8.913,15.639,10.684z"/>
	<path fill="#0084FF" d="M23.984,6.256c0.974-0.465,2.214-0.221,3.187,0.421c0.73,0.487,1.35,1.217,1.749,2.191
		c0.177,0.421,0.288,1.218,0.288,2.391c0,0,0.022-0.023,0.044-0.023c0.553-0.133,0.974-0.31,1.284-0.553
		c0.443-0.332,0.686-0.73,0.864-1.129c0.221,0.133,0.576,0.465,0.576,0.996c0,0.199-0.045,0.443-0.199,0.709
		c-0.443,0.907-1.506,1.417-2.723,1.616c-0.243,1.704-0.753,3.099-1.904,4.073c-0.509,0.421-1.328,0.575-2.125,0.575
		c-1.173,0-2.59-0.686-3.431-2.125c-0.598-1.018-0.775-2.789-0.775-4.715c0-3.187,0.554-6.929,1.041-10.006
		c0.177-0.111,0.443-0.177,0.686-0.177c0.775,0,1.616,0.597,1.616,2.081C24.16,3.555,24.116,4.839,23.984,6.256z M26.706,12.875
		c-0.974-0.199-1.571-0.42-2.081-0.708c-0.531-0.288-0.952-0.664-1.284-1.084c-0.022,0.221-0.022,0.487-0.022,0.73
		c0,1.173,0.266,2.214,0.62,2.966c0.464,0.975,1.129,1.462,1.616,1.13S26.485,14.291,26.706,12.875z M26.905,11.259
		c0.088-0.731,0.155-2.347-0.399-3.1c-0.62-0.841-2.08-0.62-2.258,0.354C24.028,9.687,25.157,10.883,26.905,11.259z"/>
	<path fill="#0084FF" d="M33.391,6.256c0.974-0.465,2.214-0.221,3.187,0.421c0.73,0.487,1.35,1.217,1.749,2.191
		c0.177,0.421,0.288,1.218,0.288,2.391c0,0,0.022-0.023,0.044-0.023c0.553-0.133,0.974-0.31,1.284-0.553
		c0.443-0.332,0.686-0.73,0.864-1.129c0.221,0.133,0.576,0.465,0.576,0.996c0,0.199-0.045,0.443-0.199,0.709
		c-0.443,0.907-1.506,1.417-2.723,1.616c-0.243,1.704-0.753,3.099-1.904,4.073c-0.509,0.421-1.328,0.575-2.125,0.575
		c-1.173,0-2.59-0.686-3.431-2.125c-0.598-1.018-0.775-2.789-0.775-4.715c0-3.187,0.554-6.929,1.041-10.006
		c0.177-0.111,0.443-0.177,0.686-0.177c0.775,0,1.616,0.597,1.616,2.081C33.568,3.555,33.523,4.839,33.391,6.256z M36.114,12.875
		c-0.974-0.199-1.571-0.42-2.081-0.708c-0.531-0.288-0.952-0.664-1.284-1.084c-0.022,0.221-0.022,0.487-0.022,0.73
		c0,1.173,0.266,2.214,0.62,2.966c0.464,0.975,1.129,1.462,1.616,1.13S35.892,14.291,36.114,12.875z M36.313,11.259
		c0.088-0.731,0.155-2.347-0.399-3.1c-0.62-0.841-2.08-0.62-2.258,0.354C33.435,9.687,34.564,10.883,36.313,11.259z"/>
	<path fill="#0084FF" d="M39.566,5.946c0-1.86,0.088-3.652,0.332-4.582c0.199-0.841,0.708-1.218,1.306-1.218
		c0.708,0,1.284,0.31,1.727,0.775c0.797,0.863,1.173,2.28,1.173,3.453c0,2.324-0.886,4.737-1.616,6.84
		c-0.022,2.347,0.067,4.339,0.908,4.848c0.864,0.531,1.993-1.284,2.169-2.258c0.266,0.044,0.664,0.509,0.598,1.217
		c-0.088,0.864-1.306,2.103-1.992,2.369c-1.196,0.421-2.435,0.155-3.276-0.93c-0.642-0.93-0.886-2.9-1.129-5.446
		C39.632,9.599,39.566,7.695,39.566,5.946z M42.776,4.707c0-0.797-0.155-1.461-0.598-1.461c-0.421,0-0.487,0.863-0.487,1.992
		c0,1.483,0.088,2.767,0.243,3.83C41.935,9.067,42.776,6.278,42.776,4.707z"/>
	<path fill="#0084FF" d="M47.646,11.724c0,1.417,0.266,2.789,1.018,3.564c0.509,0.553,1.107,0.796,1.682,0.796
		c0.753,0,1.528-0.377,2.147-0.996c0.62-0.62,1.085-1.483,1.24-2.412c0.487,0,0.819,0.597,0.708,1.284
		c-0.155,0.864-0.598,1.616-1.24,2.213c-0.908,0.841-2.147,1.35-3.475,1.35c-1.306,0-2.745-0.443-3.741-1.704
		c-0.797-0.996-1.151-2.48-1.151-4.007c0-1.55,0.376-3.143,1.173-4.294c0.797-1.173,1.948-1.638,3.055-1.638
		c1.328,0,2.612,0.664,3.011,1.549c0.553,1.195,0.155,2.324-0.952,3.21C50.169,11.392,48.841,11.724,47.646,11.724z M47.69,10.684
		c0.553-0.11,1.063-0.288,1.616-0.642c0.664-0.465,1.018-1.262,1.018-1.86c0-0.642-0.443-1.262-0.93-1.195
		C48.575,7.12,47.889,8.913,47.69,10.684z"/>
	<path fill="#0084FF" d="M57.739,9.997c0.155,0,0.443,0.022,0.797,0.022h0.266c0.066-1.771,0.155-3.63,0.243-5.158l0.066-1.594
		c-1.439,0.642-2.612,1.505-2.9,2.125c-0.531-0.177-0.996-0.864-0.996-1.572c0-0.354,0.11-0.753,0.42-1.151
		c0.886-1.151,3.166-1.704,5.49-1.704c1.86,0,3.83,0.377,4.848,1.062c1.373,0.93,1.948,2.125,1.948,3.232
		c0,1.284-0.708,2.568-1.793,3.63c-1.151,1.151-2.989,1.904-4.671,2.258v1.018c0,2.17,0.044,4.493,0.133,5.445
		c-1.041,0.156-2.103-0.243-2.502-1.151c-0.243-0.531-0.332-1.926-0.332-3.719v-1.395c-0.199-0.022-0.598-0.155-0.93-0.443
		C57.407,10.528,57.274,9.953,57.739,9.997z M61.48,9.488c0.819-0.31,1.682-0.797,2.48-1.55c0.819-0.775,1.417-2.125,1.417-3.343
		c0-1.527-1.195-2.191-2.701-2.191c-0.509,0-1.04,0.066-1.571,0.199l0.088,0.199c0.243,0.775,0.377,2.08,0.377,3.608
		c0,0.819-0.045,1.815-0.067,2.811C61.502,9.311,61.48,9.4,61.48,9.488z"/>
	<path fill="#0084FF" d="M68.253,15.399c-0.354-1.417-0.199-3.52-0.023-5.645c0.111-1.24,0.266-2.524,0.266-3.808
		c0.597-0.066,1.638,0.199,2.169,1.35c0.421,0.93,0.243,2.147,0.133,3.63c-0.088,1.085-0.177,1.815-0.177,2.701
		c0,0.929-0.067,1.992,0.398,2.258c0.797,0.465,1.948-1.196,2.192-2.103c0.288-0.022,0.708,0.464,0.575,1.041
		c-0.221,1.283-1.505,2.81-2.9,2.722C69.471,17.457,68.563,16.594,68.253,15.399z M70.777,2.117c0.531,0.332,0.93,0.841,0.93,1.461
		s-0.642,0.908-1.24,0.908c-0.664,0-1.417-0.354-1.904-0.886s-0.576-1.129-0.266-1.527c0.199-0.266,0.575-0.421,1.084-0.421
		C69.825,1.652,70.334,1.829,70.777,2.117z"/>
	<path fill="#0084FF" d="M84.213,13.805c0.31,0.089,0.708,0.509,0.487,1.416c-0.354,1.13-1.461,2.104-2.457,2.258
		c-0.996,0.155-2.634-0.531-2.878-1.594c-0.332-1.483-0.266-2.014-0.199-3.187c-0.31,1.062-1.373,4.184-2.767,4.671
		c-1.86,0.642-3.542-1.948-3.63-4.959c-0.066-2.302,0.841-5.202,2.745-5.955c1.417-0.553,3.077-0.022,3.984,1.262
		c0.045-0.288,0.067-0.553,0.089-0.797c0.066-0.864,2.347,0.133,2.369,1.439c0,0.221-0.044,0.775-0.111,1.439
		c-0.133,1.262-0.288,2.967-0.288,4.25c0,1.04,0.111,1.837,0.443,1.992C82.929,16.527,83.992,14.646,84.213,13.805z M79.188,9.333
		C79.1,8.381,78.081,6.92,77.041,8.005c-0.908,0.952-1.439,3.498-1.439,5.313c0,1.129,0.221,2.059,0.642,2.191
		C77.196,15.487,78.568,12.144,79.188,9.333z"/>
	<path fill="#0084FF" d="M94.506,13.805c0.332,0.067,0.819,0.532,0.531,1.372c-0.332,1.085-1.704,2.413-2.612,2.413
		c-0.62,0-2.214-0.309-2.789-2.08c-0.421-1.328-0.199-2.878-0.088-4.405c0.088-1.328,0.332-2.9-0.332-2.989
		c-0.487-0.066-1.35,1.815-2.081,3.896c-0.797,2.213-1.461,4.67-1.395,5.202c0.089,0.995-1.793-0.067-2.125-2.104
		c-0.133-1.262,0-2.545,0.11-3.962c0.088-1.217,0.199-2.502,0.199-3.454c0-0.465-0.022-0.841-0.066-1.151
		c0.753-0.199,1.704,0.243,2.125,1.217c0.133,0.288,0.155,0.819,0.155,1.395c0,1.217-0.221,2.634-0.221,3.409
		c0,0,0.465-1.727,1.085-3.298c0.443-1.129,0.93-2.169,1.373-2.479c0.332-0.243,0.708-0.354,1.107-0.354
		c1.085,0,2.258,0.819,2.546,1.749c0.288,0.952,0.111,2.546,0,3.896c-0.044,0.664-0.421,3.409,0.177,3.962v-0.022
		C92.956,16.527,94.307,14.978,94.506,13.805z"/>
	<path fill="#0084FF" d="M102.12,13.118c-0.199,1.705-0.708,3.276-1.904,4.028c-1.528,0.952-4.494,0.067-5.424-1.616
		c-0.642-1.129-0.908-2.545-0.908-3.874c0-2.059,0.642-4.029,1.749-4.848c0.443-0.354,0.886-0.51,1.306-0.532
		c0.797-0.376,1.749-0.266,2.591,0.045c1.107,0.42,1.837,1.217,2.191,2.258c0.266,0.841,0.443,1.86,0.487,2.878
		c0.554-0.11,1.085-0.31,1.528-0.575c0.531-0.31,0.952-0.753,1.151-1.328c0.288,0.177,0.642,0.532,0.642,1.041
		c0,0.288-0.133,0.753-0.465,1.151C104.4,12.521,103.382,12.942,102.12,13.118z M97.095,14.469c0.332,1.173,0.907,1.882,1.527,1.594
		c0.266-0.11,0.532-0.465,0.775-0.996c0.244-0.531,0.443-1.217,0.598-1.926c-0.576-0.088-1.152-0.221-1.705-0.42
		c-0.554-0.199-1.063-0.487-1.55-0.864C96.741,12.831,96.874,13.738,97.095,14.469z M100.238,11.569
		c0.088-0.753,0.044-1.815-0.221-2.48C99.53,7.872,98.29,7.164,97.67,7.85c-0.708,0.797-0.31,2.037,0.62,2.944
		C98.799,11.281,99.597,11.547,100.238,11.569z"/>
</g>
</svg>
