<?xml version="1.0" encoding="utf-8"?>
<!-- Generator: Adobe Illustrator 17.0.0, SVG Export Plug-In . SVG Version: 6.00 Build 0)  -->
<!DOCTYPE svg PUBLIC "-//W3C//DTD SVG 1.1//EN" "http://www.w3.org/Graphics/SVG/1.1/DTD/svg11.dtd">
<svg version="1.1" id="Layer_1" xmlns="http://www.w3.org/2000/svg" xmlns:xlink="http://www.w3.org/1999/xlink" x="0px" y="0px"
	 width="68.484px" height="68.484px" viewBox="0 0 68.484 68.484" enable-background="new 0 0 68.484 68.484" xml:space="preserve">
<g>
	<circle fill="#FFFFFF" cx="34.517" cy="34.242" r="32.356"/>
	<path fill="#F9F5D6" d="M66.598,34.242c0,17.87-14.486,32.356-32.356,32.356S1.886,52.112,1.886,34.242
		c0,9.414,14.486,25.203,32.356,25.203S66.598,44.029,66.598,34.242z"/>
	<path fill="#363842" d="M34.242,67.783C15.747,67.783,0.7,52.737,0.7,34.242C0.7,15.747,15.747,0.7,34.242,0.7
		s33.542,15.047,33.542,33.542C67.783,52.737,52.737,67.783,34.242,67.783z M34.242,3.072c-17.187,0-31.17,13.983-31.17,31.17
		s13.983,31.17,31.17,31.17s31.17-13.983,31.17-31.17S51.429,3.072,34.242,3.072z"/>
	<path fill="#363842" d="M34.004,47.696c-2.581,0-3.97-3.03-4.12-3.376c-0.197-0.453-0.076-0.981,0.299-1.303
		c0.374-0.322,0.914-0.364,1.333-0.102c0.005,0.003,0.986,0.592,2.142,0.592c1.311,0,2.968-0.672,2.985-0.679
		c0.423-0.173,0.91-0.074,1.231,0.252c0.321,0.326,0.414,0.813,0.234,1.234C37.96,44.661,36.589,47.696,34.004,47.696z"/>
	<path fill="#363842" d="M50.17,33.215c0.159,0.223,0.461,0.269,0.692,0.123c0.372-0.235,0.813-0.371,1.285-0.371
		s0.913,0.137,1.285,0.371c0.232,0.146,0.534,0.1,0.693-0.124c0.371-0.522,0.54-1.197,0.391-1.914
		c-0.191-0.918-0.932-1.66-1.85-1.851c-1.566-0.325-2.943,0.861-2.943,2.369C49.724,32.339,49.89,32.821,50.17,33.215z"/>
	<path fill="#363842" d="M13.69,33.215c0.159,0.223,0.461,0.269,0.692,0.123c0.372-0.235,0.813-0.371,1.285-0.371
		c0.473,0,0.913,0.137,1.285,0.371c0.232,0.146,0.534,0.1,0.693-0.124c0.371-0.522,0.54-1.197,0.391-1.914
		c-0.191-0.918-0.932-1.66-1.85-1.851c-1.566-0.325-2.943,0.861-2.943,2.369C13.245,32.339,13.41,32.821,13.69,33.215z"/>
	<path fill="#F9F7D9" d="M49.225,16.064c0.694,0.55,1.227,1.019,1.672,1.561c0.445,0.543,0.825,1.172,1.191,2.117
		c0.274,0.713,1.075,1.068,1.788,0.794c0.713-0.274,1.068-1.075,0.794-1.788c-0.45-1.174-0.997-2.106-1.636-2.88
		c-0.638-0.775-1.344-1.379-2.088-1.97c-0.598-0.475-1.468-0.375-1.943,0.223C48.527,14.719,48.627,15.59,49.225,16.064
		L49.225,16.064z"/>
	<path fill="#F9F7D9" d="M43.499,12.698l0.048,0.019c0.225,0.09,1.221,0.494,2.329,0.983c0.699,0.308,1.515-0.008,1.824-0.707
		c0.308-0.699-0.008-1.515-0.707-1.824c-1.318-0.582-2.46-1.037-2.469-1.041c-0.71-0.283-1.514,0.063-1.797,0.773
		C42.443,11.61,42.789,12.415,43.499,12.698L43.499,12.698z"/>
</g>
</svg>
